<?xml version="1.0" encoding="UTF-8"?> <svg xmlns="http://www.w3.org/2000/svg" width="60" height="85" viewBox="0 0 60 85"><g id="Pin" transform="translate(-620 -382)"><ellipse id="Shadow" cx="12" cy="4.5" rx="12" ry="4.5" transform="translate(638 440)"></ellipse><g id="Pin-2" data-name="Pin" transform="translate(-35 22)"><path id="pin_1_" data-name="pin (1)" d="M23.536,0A23.536,23.536,0,0,0,0,23.536C0,43.149,23.536,62.762,23.536,62.762S47.071,43.149,47.071,23.536A23.536,23.536,0,0,0,23.536,0Zm0,31.381a7.845,7.845,0,1,1,7.845-7.845A7.845,7.845,0,0,1,23.536,31.381Z" transform="translate(661 360)"></path><circle id="Ellipse_17" data-name="Ellipse 17" cx="9.5" cy="9.5" r="9.5" transform="translate(675 374)"></circle></g></g></svg> 